<svg version="1.1" xmlns="http://www.w3.org/2000/svg" viewBox="0 0 41.53844935919233 41.53844935919233" width="41.53844935919233" height="41.53844935919233"><!-- svg-source:excalidraw --><metadata></metadata><defs><style class="style-fonts">
      </style></defs><g stroke-linecap="round"><g transform="translate(15.544132123450083 21.40505698100418) rotate(89.99999999999994 5.928976350170615 0.04682453769959238)"><path d="M0.11 0.39 C2.22 0.35, 10.36 -0.06, 12.23 -0.12 M-0.5 0.11 C1.62 0.14, 9.85 0.39, 11.99 0.46" stroke="#236327" stroke-width="1" fill="none"></path></g></g><mask></mask><g stroke-linecap="round"><g transform="translate(17.613748849276817 14.817878385775373) rotate(176.379048299273 3.070914390812078 1.6655149101724191)"><path d="M0 0 C0.94 0.91, 1.96 2.17, 3.09 3.33 M0 0 C0.99 0.96, 1.8 1.99, 3.09 3.33 M3.09 3.33 C4.34 2.1, 5.51 0.74, 6.14 0.03 M3.09 3.33 C3.8 2.6, 4.52 1.73, 6.14 0.03" stroke="#236327" stroke-width="1" fill="none"></path></g></g><mask></mask><g stroke-linecap="round" transform="translate(10 10) rotate(179.9999999999999 10.769224679596192 10.769224679596192)"><path d="M11.81 0.47 C13.97 0.51, 16.48 1.14, 18.08 2.75 C19.68 4.36, 21.14 7.76, 21.44 10.14 C21.73 12.51, 21.1 15.14, 19.85 17 C18.6 18.86, 16.14 20.7, 13.92 21.28 C11.7 21.85, 8.74 21.34, 6.55 20.43 C4.36 19.52, 1.83 17.9, 0.77 15.82 C-0.3 13.74, -0.52 10.3, 0.16 7.96 C0.85 5.63, 2.94 3.21, 4.88 1.82 C6.81 0.43, 10.6 -0.08, 11.76 -0.37 C12.93 -0.66, 11.83 -0.11, 11.88 0.09 M10.3 0.09 C12.61 -0.08, 15.4 1.2, 17.3 2.59 C19.19 3.99, 21.08 6.2, 21.67 8.46 C22.25 10.72, 22 14.24, 20.82 16.16 C19.64 18.08, 16.87 19.21, 14.6 19.98 C12.32 20.76, 9.27 21.33, 7.17 20.8 C5.07 20.26, 3.31 18.63, 2.01 16.79 C0.71 14.94, -0.81 12.08, -0.62 9.71 C-0.44 7.34, 1.28 4.24, 3.13 2.59 C4.98 0.93, 9.21 0.07, 10.46 -0.22 C11.71 -0.52, 10.74 0.69, 10.63 0.81" stroke="#236327" stroke-width="1" fill="none"></path></g></svg>